 <svg version="1.0" xmlns="http://www.w3.org/2000/svg" width="70.000000pt" height="60.000000pt" viewBox="0 0 60.000000 60.000000" preserveAspectRatio="xMidYMid meet">

<g transform="translate(0.000000,560.000000) scale(0.100000,-0.100000)" fill="#000000" stroke="none">
<path d="M2405 4074 c-89 -22 -151 -67 -185 -135 -15 -29 -27 -38 -57 -44
-107 -20 -201 -95 -224 -179 -18 -67 -5 -159 31 -210 16 -25 40 -53 53 -63 21
-16 23 -24 19 -90 -3 -59 0 -80 17 -117 59 -121 193 -173 329 -127 l62 21 60
-20 c71 -24 119 -25 188 -5 67 20 118 65 149 132 22 47 25 63 20 121 -5 65 -4
68 28 101 43 45 80 148 71 202 -16 102 -97 196 -192 224 -28 8 -57 15 -63 15
-6 0 -17 15 -24 33 -18 41 -68 92 -116 116 -37 20 -131 33 -166 25z m138 -118
c37 -25 69 -75 74 -117 l6 -39 61 0 c79 0 131 -28 163 -89 45 -86 17 -177 -69
-220 -27 -13 -48 -28 -48 -35 0 -6 9 -24 20 -41 43 -66 18 -168 -52 -208 -54
-31 -101 -32 -160 -3 -29 14 -60 31 -69 37 -13 10 -26 6 -70 -21 -90 -56 -179
-43 -240 34 -31 40 -31 126 1 179 12 21 21 39 19 40 -2 1 -26 13 -54 27 -71
36 -98 79 -93 153 4 46 10 63 34 88 46 48 86 63 154 56 l59 -5 7 45 c8 55 60
118 108 133 41 12 119 5 149 -14z"></path>
<path d="M2380 3691 c-41 -21 -77 -70 -86 -117 -8 -44 28 -119 70 -146 24 -15
44 -18 93 -16 53 3 67 8 93 33 57 55 63 146 13 206 -49 58 -121 74 -183 40z"></path>
<path d="M1638 2937 c-69 -20 -153 -75 -213 -139 -29 -31 -56 -54 -59 -51 -3
4 -6 42 -6 85 l0 78 -170 0 -170 0 0 -485 0 -485 170 0 170 0 0 379 0 379 66
71 c75 80 107 101 158 101 28 0 40 -6 53 -27 16 -25 18 -68 23 -463 l5 -435
170 0 170 0 0 427 0 426 -30 43 c-46 64 -118 100 -212 105 -47 2 -97 -1 -125
-9z"></path>
<path d="M4365 2930 c-204 -44 -366 -196 -409 -384 -20 -84 -20 -135 -1 -228
32 -148 132 -274 275 -347 82 -41 152 -54 272 -50 95 4 111 7 172 38 113 58
195 157 240 288 31 92 14 99 -29 12 -61 -123 -157 -189 -275 -189 -178 0 -299
155 -327 421 l-6 59 318 0 317 0 -7 48 c-21 151 -103 257 -235 306 -82 30
-228 43 -305 26z m155 -40 c37 -39 57 -110 66 -227 l7 -93 -157 0 -156 0 0 37
c0 51 28 159 55 213 51 100 129 129 185 70z"></path>
<path d="M3183 2916 c-125 -30 -257 -122 -322 -225 -193 -300 -21 -701 334
-776 261 -55 463 59 559 317 32 85 17 98 -23 19 -137 -271 -445 -263 -561 16
-86 207 -59 536 52 614 48 35 132 38 178 7 64 -43 87 -128 56 -203 -8 -19 -24
-40 -35 -47 -27 -16 -27 -38 0 -72 31 -39 71 -56 133 -56 47 0 60 4 90 30 20
18 41 50 50 77 15 43 15 51 -1 100 -10 33 -32 68 -56 94 -93 97 -295 143 -454
105z"></path>
<path d="M2270 2425 l0 -485 170 0 170 0 0 485 0 485 -170 0 -170 0 0 -485z"></path>
<path d="M5129 2896 c-39 -22 -59 -60 -59 -110 0 -103 138 -157 201 -78 l21
27 -22 3 c-12 2 -37 -4 -56 -13 -32 -15 -38 -15 -58 -1 -44 28 -40 110 7 136
24 13 28 13 56 -8 57 -42 96 -19 47 27 -31 29 -100 37 -137 17z"></path>
<path d="M5383 2890 c-68 -41 -68 -157 1 -199 99 -61 209 22 180 136 -18 73
-112 105 -181 63z m115 -49 c7 -9 12 -35 10 -61 -3 -37 -7 -47 -30 -58 -57
-27 -114 36 -88 99 21 49 77 60 108 20z"></path>
</g>
</svg>