<?xml version="1.0" standalone="no"?>
<!DOCTYPE svg PUBLIC "-//W3C//DTD SVG 20010904//EN"
 "http://www.w3.org/TR/2001/REC-SVG-20010904/DTD/svg10.dtd">
<svg version="1.0" xmlns="http://www.w3.org/2000/svg"
 width="700.000000pt" height="700.000000pt" viewBox="0 0 700.000000 700.000000"
 preserveAspectRatio="xMidYMid meet">
<metadata>
Created by potrace 1.14, written by Peter Selinger 2001-2017
</metadata>
<g transform="translate(0.000000,700.000000) scale(0.100000,-0.100000)"
fill="#000000" stroke="none">
<path d="M3390 6747 c-3 -3 -34 -7 -70 -11 -184 -19 -430 -97 -602 -193 -376
-208 -628 -494 -787 -895 -13 -32 -28 -58 -35 -58 -220 -7 -354 -26 -526 -77
-491 -145 -898 -516 -1085 -988 -31 -77 -73 -214 -80 -260 -3 -16 -8 -43 -12
-60 -3 -16 -8 -41 -11 -55 -11 -60 -9 -389 3 -460 23 -134 50 -246 75 -305 4
-11 14 -36 21 -55 22 -62 109 -231 154 -300 104 -160 247 -313 400 -427 55
-41 103 -78 107 -82 4 -3 -1 -33 -11 -67 -11 -33 -22 -73 -25 -89 -3 -17 -7
-41 -10 -55 -13 -59 -16 -78 -24 -140 -9 -83 -9 -350 1 -415 4 -27 10 -66 13
-85 18 -115 82 -308 145 -433 31 -61 115 -194 160 -252 50 -64 239 -243 315
-296 199 -142 491 -272 683 -304 19 -3 37 -7 40 -9 3 -2 31 -7 62 -10 31 -4
67 -9 80 -12 30 -6 327 -7 355 0 12 2 45 7 75 11 199 24 483 124 678 239 l63
37 67 -39 c246 -141 471 -211 796 -248 44 -5 316 -5 345 0 14 3 48 7 75 11 89
11 109 15 170 29 162 37 305 89 435 159 221 117 447 335 582 562 87 146 170
351 192 471 2 11 7 37 11 59 36 183 36 432 0 615 -12 63 -43 184 -56 227 -2 6
27 35 65 64 360 274 593 705 634 1174 11 135 6 312 -14 420 -44 249 -118 449
-233 635 -169 272 -397 479 -691 626 -198 100 -508 181 -701 183 -35 1 -37 3
-59 64 -31 86 -126 274 -162 322 -4 6 -34 46 -67 90 -244 330 -613 562 -1035
651 -98 21 -158 27 -311 30 -105 3 -193 3 -195 1z m315 -678 c28 -5 64 -12 80
-15 46 -7 153 -44 220 -75 305 -140 541 -452 581 -766 2 -21 13 -105 24 -187
11 -81 20 -153 20 -158 0 -9 104 -3 120 7 3 2 33 7 65 10 33 4 96 13 140 20
77 13 311 14 365 1 14 -3 39 -8 55 -12 237 -47 473 -200 625 -404 90 -120 166
-316 188 -485 10 -71 8 -259 -3 -305 -3 -14 -8 -38 -10 -55 -28 -161 -142
-368 -269 -489 -117 -110 -189 -151 -476 -263 -91 -35 -168 -67 -172 -71 -4
-4 25 -63 63 -132 202 -360 252 -510 252 -760 0 -377 -246 -727 -593 -846 -30
-10 -57 -19 -60 -19 -3 -1 -23 -5 -45 -10 -22 -5 -42 -10 -45 -10 -3 -1 -27
-5 -55 -9 -27 -4 -61 -10 -75 -12 -31 -5 -226 -5 -260 0 -138 21 -152 24 -250
53 -199 59 -336 147 -615 394 -19 17 -23 15 -145 -83 -277 -222 -497 -331
-734 -363 -427 -58 -892 168 -1068 520 -105 210 -122 481 -46 740 34 115 82
215 257 535 l19 34 -212 82 c-116 44 -239 96 -271 114 -295 162 -490 444 -530
765 -50 402 176 799 562 989 230 113 467 139 753 81 74 -15 144 -29 155 -31
11 -2 34 -6 50 -9 92 -18 93 -18 98 1 3 11 9 48 12 84 3 36 8 79 10 95 2 17 6
55 10 85 7 64 13 105 20 140 3 14 7 36 10 49 28 149 133 337 260 465 70 71
192 166 213 166 5 0 15 6 21 14 19 23 211 94 311 114 104 22 289 27 375 11z"/>
<path d="M3395 4378 c-489 -58 -867 -475 -880 -971 -12 -495 339 -928 825
-1017 74 -14 241 -17 315 -6 323 47 611 254 754 542 80 163 110 294 106 479
-5 251 -96 477 -267 660 -219 234 -537 351 -853 313z"/>
</g>
</svg>
